<?xml version="1.0" encoding="UTF-8"?>
<svg version="1.1" xmlns="http://www.w3.org/2000/svg" width="100" height="100">
<path d="M0 0 C0.92039063 0.47308594 1.84078125 0.94617188 2.7890625 1.43359375 C6.37374449 3.18232548 9.73005892 3.75554133 13.625 4.3125 C26.92887552 6.56091308 37.87914034 12.88072534 46.09375 23.77734375 C47.03734375 24.87755859 47.03734375 24.87755859 48 26 C48.99 26 49.98 26 51 26 C55.07364258 31.39158577 56.12854305 35.01715238 56.0625 41.6875 C56.05347656 42.86699219 56.04445313 44.04648437 56.03515625 45.26171875 C56.02355469 46.16535156 56.01195313 47.06898437 56 48 C56.474375 47.175 56.94875 46.35 57.4375 45.5 C57.953125 44.675 58.46875 43.85 59 43 C59.33 43 59.66 43 60 43 C60.57639463 55.29641868 59.38540098 62.6828878 51 72 C53.97 70.35 56.94 68.7 60 67 C58.10787377 76.46063114 51.46148709 84.06104501 44 90 C31.25645176 98.03566972 17.61913806 100.1913748 2.8125 96.875 C-12.15970065 92.51981563 -23.59237561 84.08145094 -31.57421875 70.61328125 C-33.48067374 67.1189843 -35.24503228 63.57261286 -37 60 C-37.86625 58.948125 -37.86625 58.948125 -38.75 57.875 C-40.5304773 55.20428405 -40.27259917 53.13489043 -40 50 C-39.67 49.34 -39.34 48.68 -39 48 C-38.75212983 43.85496339 -38.75212983 43.85496339 -40 40 C-40.68532884 34.86003373 -40.68532884 34.86003373 -40 32 C-38.47265625 30.4921875 -38.47265625 30.4921875 -36.5625 29.125 C-34.09657516 27.32846793 -33.12945828 26.61171508 -32.48828125 23.58203125 C-32.41337755 21.83341732 -32.34042778 20.08471848 -32.26953125 18.3359375 C-32 16 -32 16 -30.0625 13.0625 C-26.58233789 10.71871736 -23.5273464 9.98500534 -19.5078125 8.953125 C-15.92152481 7.59011223 -13.8705517 5.3669267 -11.375 2.5234375 C-8.35412471 -0.823555 -4.2083515 -0.60948539 0 0 Z M49 28 C48.9071875 29.8871875 48.9071875 29.8871875 48.8125 31.8125 C48.70703125 33.95703125 48.70703125 33.95703125 48 36 C42.75906913 40.24265833 36.66550167 39.85783531 30.20458984 39.33691406 C25.4280464 38.60694397 20.89358234 36.85810975 16.4309082 35.04711914 C11.01766456 32.94364854 6.67514167 32.58613117 1 34 C-4.35897792 36.58274132 -8.17589637 40.80364933 -11 46 C-13.49147058 53.87843398 -12.6277607 62.35085742 -9.2890625 69.796875 C-7.31568709 73.16955298 -4.95021227 75.4520894 -2 78 C-1.01 77.505 -1.01 77.505 0 77 C-0.495 76.2575 -0.99 75.515 -1.5 74.75 C-3 72 -3 72 -3 68 C-2.21689453 68.76183594 -2.21689453 68.76183594 -1.41796875 69.5390625 C8.17790258 78.51313481 16.8607875 82.78843509 30 84 C27.09382458 81.73343156 24.47723736 80.25566905 21 79 C21 78.01 21 77.02 21 76 C21.9075 76.103125 22.815 76.20625 23.75 76.3125 C29.5418469 76.33623708 34.94764274 73.62220296 40 71 C40.99 70.01 41.98 69.02 43 68 C39.37 68.33 35.74 68.66 32 69 C34.1128363 66.8871637 35.91540019 65.31344986 38.25 63.5625 C45.3835491 57.47399313 50.0517903 48.30318951 51 39 C51.28232479 34.69454695 51.35869422 31.68545973 49 28 Z " fill="#C2008F" transform="translate(40,1)"/>
<path d="M0 0 C3.5 1.5 3.5 1.5 6 3 C6 3.66 6 4.32 6 5 C5.07380859 5.14695312 5.07380859 5.14695312 4.12890625 5.296875 C-5.0451832 6.91665335 -14.0072632 10.0072632 -20.75 16.75 C-21.1625 17.1625 -21.575 17.575 -22 18 C-22.66 18 -23.32 18 -24 18 C-24.26941406 18.56460937 -24.53882813 19.12921875 -24.81640625 19.7109375 C-26.06077282 22.11753423 -27.47724642 24.34358601 -28.9375 26.625 C-35.75755194 38.16406099 -35.37103749 48.92806389 -35 62 C-39.94957983 57.21008403 -39.94957983 57.21008403 -40.125 53 C-40 50 -40 50 -39 48 C-38.75212983 43.85496339 -38.75212983 43.85496339 -40 40 C-40.68532884 34.86003373 -40.68532884 34.86003373 -40 32 C-38.47265625 30.4921875 -38.47265625 30.4921875 -36.5625 29.125 C-34.09657516 27.32846793 -33.12945828 26.61171508 -32.48828125 23.58203125 C-32.41337755 21.83341732 -32.34042778 20.08471848 -32.26953125 18.3359375 C-32 16 -32 16 -30.0625 13.0625 C-26.58233789 10.71871736 -23.5273464 9.98500534 -19.5078125 8.953125 C-15.92152481 7.59011223 -13.8705517 5.3669267 -11.375 2.5234375 C-8.30643365 -0.87639454 -4.26528295 -0.47392033 0 0 Z " fill="#FA008F" transform="translate(40,1)"/>
<path d="M0 0 C1.17755859 0.14888672 1.17755859 0.14888672 2.37890625 0.30078125 C4.4375 0.6875 4.4375 0.6875 6.4375 1.6875 C6.128125 2.265 5.81875 2.8425 5.5 3.4375 C4.36006867 5.61704724 4.36006867 5.61704724 4 7.875 C3.814375 8.473125 3.62875 9.07125 3.4375 9.6875 C-0.03575181 10.8452506 -2.92317448 10.75616652 -6.5625 10.6875 C-8.09906962 8.2470659 -8.58339707 6.98005898 -8.375 4.0625 C-6.85342731 -0.38517403 -4.14476486 -0.56674709 0 0 Z " fill="#FA008F" transform="translate(36.5625,14.3125)"/>
<path d="M0 0 C3.37991014 3.11307513 5.82236619 5.50358001 7 10 C7.07646165 12.3320802 7.09143299 14.66845878 7 17 C6.34 17 5.68 17 5 17 C5 16.34 5 15.68 5 15 C4.34 15 3.68 15 3 15 C2.34 16.98 1.68 18.96 1 21 C-0.35276714 18.29446571 0.4092783 16.95360849 1 14 C1.17735162 9.21150631 0.77156161 4.72581485 0 0 Z " fill="#4E008E" transform="translate(89,26)"/>
<path d="M0 0 C0.08636719 0.9178125 0.17273438 1.835625 0.26171875 2.78125 C1.04612147 9.63218014 1.74653031 14.95122584 6.07421875 20.44921875 C6.53248047 21.21685547 6.53248047 21.21685547 7 22 C6.67 22.99 6.34 23.98 6 25 C3 21.25 3 21.25 3 19 C2.34 18.67 1.68 18.34 1 18 C-1.96846365 12.41928833 -2.63442423 7.26521225 -3 1 C-1 0 -1 0 0 0 Z " fill="#D80091" transform="translate(28,53)"/>
<path d="M0 0 C0.66 0.33 1.32 0.66 2 1 C0.02 1.99 0.02 1.99 -2 3 C-1.34 2.01 -0.68 1.02 0 0 Z M-5 4 C-4.34 4.33 -3.68 4.66 -3 5 C-3.44730469 5.57105469 -3.89460938 6.14210938 -4.35546875 6.73046875 C-9.33281555 13.4058443 -12.32598581 20.13815184 -15 28 C-15.33 28 -15.66 28 -16 28 C-15.65032535 18.7336219 -11.14200285 10.85069549 -5 4 Z " fill="#6C008E" transform="translate(21,15)"/>
<path d="M0 0 C1.65 0.33 3.3 0.66 5 1 C4.8125 3.3125 4.8125 3.3125 4 6 C0.66753954 8.68448204 -1.76204266 9.36325349 -6 9 C-5.01 8.67 -4.02 8.34 -3 8 C-2.87625 7.236875 -2.7525 6.47375 -2.625 5.6875 C-2 3 -2 3 0 0 Z " fill="#DE088F" transform="translate(43,16)"/>
<path d="M0 0 C0.66 0.66 1.32 1.32 2 2 C1.625 4.625 1.625 4.625 1 7 C-1.64 7 -4.28 7 -7 7 C-5.66667905 3.00003714 -3.5042173 2.16217663 0 0 Z " fill="#95008B" transform="translate(79,63)"/>
<path d="M0 0 C0.33 0 0.66 0 1 0 C1 2.31 1 4.62 1 7 C1.66 7 2.32 7 3 7 C2.67 11.62 2.34 16.24 2 21 C1.67 21 1.34 21 1 21 C0.07907719 16.34462644 -0.12205997 11.85314567 -0.0625 7.125 C-0.05798828 6.43664063 -0.05347656 5.74828125 -0.04882812 5.0390625 C-0.03716336 3.35933665 -0.01923271 1.67965625 0 0 Z " fill="#5B008E" transform="translate(4,43)"/>
<path d="M0 0 C0.33 0.99 0.66 1.98 1 3 C-0.4375 5.1875 -0.4375 5.1875 -2 7 C-2 6.34 -2 5.68 -2 5 C-2.99 5 -3.98 5 -5 5 C-5.33 5.99 -5.66 6.98 -6 8 C-7.65 8 -9.3 8 -11 8 C-7.45960866 5.0843836 -3.8373228 2.49872182 0 0 Z " fill="#800092" transform="translate(99,68)"/>
<path d="M0 0 C0.66 0.33 1.32 0.66 2 1 C-1.63 4.63 -5.26 8.26 -9 12 C-9 8.47601214 -8.44884893 7.98495633 -6.1875 5.4375 C-5.40439453 4.53837891 -5.40439453 4.53837891 -4.60546875 3.62109375 C-3 2 -3 2 0 0 Z " fill="#93008E" transform="translate(20,30)"/>
<path d="M0 0 C2.5625 2.1875 2.5625 2.1875 5 5 C4.8125 7.8125 4.8125 7.8125 4 10 C1.2027092 7.93243723 0.97307727 6.85559629 0.3125 3.3125 C0.209375 2.219375 0.10625 1.12625 0 0 Z " fill="#F9008F" transform="translate(36,68)"/>
<path d="M0 0 C2.64 0 5.28 0 8 0 C8.33 0.99 8.66 1.98 9 3 C9.99 3.66 10.98 4.32 12 5 C9.36 5 6.72 5 4 5 C4.33 3.68 4.66 2.36 5 1 C3.35 1 1.7 1 0 1 C0 0.67 0 0.34 0 0 Z " fill="#9C008E" transform="translate(30,25)"/>
<path d="M0 0 C2.31 0 4.62 0 7 0 C7 0.66 7 1.32 7 2 C8.98 2 10.96 2 13 2 C13 2.33 13 2.66 13 3 C8.48382401 3.07654536 4.40914783 3.10228696 0 2 C0 1.34 0 0.68 0 0 Z " fill="#D60091" transform="translate(59,84)"/>
<path d="M0 0 C1.98 0 3.96 0 6 0 C5.01 1.485 5.01 1.485 4 3 C1.375 3.1875 1.375 3.1875 -1 3 C-0.67 2.01 -0.34 1.02 0 0 Z " fill="#EC0092" transform="translate(60,96)"/>
<path d="M0 0 C0 0.99 0 1.98 0 3 C-1.98 3.66 -3.96 4.32 -6 5 C-6.33 4.01 -6.66 3.02 -7 2 C-2.25 0 -2.25 0 0 0 Z " fill="#D80098" transform="translate(75,93)"/>
<path d="M0 0 C0.66 0 1.32 0 2 0 C1.25 4.75 1.25 4.75 -1 7 C-1.99 6.67 -2.98 6.34 -4 6 C-3.525625 5.566875 -3.05125 5.13375 -2.5625 4.6875 C-0.76313043 2.97690387 -0.76313043 2.97690387 0 0 Z " fill="#D00E8F" transform="translate(46,17)"/>
</svg>
